<svg width="28" height="28" viewBox="0 0 28 28" fill="none" xmlns="http://www.w3.org/2000/svg">
<path d="M9.33325 9.33333V8.16667C9.33325 6.92899 9.82492 5.742 10.7001 4.86683C11.5753 3.99167 12.7622 3.5 13.9999 3.5C15.2376 3.5 16.4246 3.99167 17.2998 4.86683C18.1749 5.742 18.6666 6.92899 18.6666 8.16667V9.33333" stroke="#0A0D12" stroke-width="2" stroke-linecap="round"/>
<path fill-rule="evenodd" clip-rule="evenodd" d="M4.18367 8.85041C3.5 9.53408 3.5 10.6331 3.5 12.8334V16.3334C3.5 20.7329 3.5 22.9332 4.86733 24.2994C6.23467 25.6656 8.43383 25.6667 12.8333 25.6667H15.1667C19.5662 25.6667 21.7665 25.6667 23.1327 24.2994C24.4988 22.9321 24.5 20.7329 24.5 16.3334V12.8334C24.5 10.6331 24.5 9.53408 23.8163 8.85041C23.1327 8.16675 22.0337 8.16675 19.8333 8.16675H8.16667C5.96633 8.16675 4.86733 8.16675 4.18367 8.85041ZM11.6667 14.0001C11.6667 13.6907 11.5437 13.3939 11.325 13.1751C11.1062 12.9563 10.8094 12.8334 10.5 12.8334C10.1906 12.8334 9.89383 12.9563 9.67504 13.1751C9.45625 13.3939 9.33333 13.6907 9.33333 14.0001V16.3334C9.33333 16.6428 9.45625 16.9396 9.67504 17.1584C9.89383 17.3772 10.1906 17.5001 10.5 17.5001C10.8094 17.5001 11.1062 17.3772 11.325 17.1584C11.5437 16.9396 11.6667 16.6428 11.6667 16.3334V14.0001ZM18.6667 14.0001C18.6667 13.6907 18.5437 13.3939 18.325 13.1751C18.1062 12.9563 17.8094 12.8334 17.5 12.8334C17.1906 12.8334 16.8938 12.9563 16.675 13.1751C16.4562 13.3939 16.3333 13.6907 16.3333 14.0001V16.3334C16.3333 16.6428 16.4562 16.9396 16.675 17.1584C16.8938 17.3772 17.1906 17.5001 17.5 17.5001C17.8094 17.5001 18.1062 17.3772 18.325 17.1584C18.5437 16.9396 18.6667 16.6428 18.6667 16.3334V14.0001Z" fill="#0A0D12"/>
</svg>
